<svg width="300" height="300" xmlns="http://www.w3.org/2000/svg">

 <g>
  <title>background</title>
  <rect fill="none" id="canvas_background" height="302" width="302" y="-1" x="-1"/>
 </g>
 <g>
  <title>Layer 1</title>
  <g stroke="null" id="svg_6">
   <path stroke="null" id="svg_1" d="m238.084851,144.348369c0.564646,-2.823232 5.646465,-6.211111 9.59899,-9.034344c6.775758,-5.081818 14.116162,-10.728283 14.116162,-19.19798c0,-8.469697 -7.905051,-14.116162 -14.680809,-19.762627c-3.952525,-2.823232 -8.469697,-6.211111 -9.59899,-9.034344c-1.129293,-2.823232 0.564646,-8.469697 2.258586,-13.551516c2.258586,-7.905051 5.081818,-16.939394 0,-23.715152c-5.081818,-6.775758 -14.116162,-6.775758 -22.585859,-7.340404c-5.081818,0 -10.728283,0 -13.551516,-2.258586c-2.258586,-1.693939 -3.952525,-7.340404 -5.646465,-11.857576c-2.823232,-7.905051 -6.211111,-16.939394 -14.116162,-19.762627c-7.905051,-2.258586 -15.245455,2.823232 -22.021213,7.340404c-3.387879,3.952525 -8.469697,7.340404 -11.29293,7.340404c-2.823232,0 -7.905051,-3.387879 -12.422223,-6.211111c-7.340404,-5.081818 -14.680809,-10.163637 -22.021213,-7.340404c-7.905051,2.823232 -11.29293,11.857576 -14.116162,19.762627c-1.693939,4.517172 -3.387879,10.163637 -5.646465,11.857576c-2.258586,1.129293 -8.469697,1.129293 -13.551516,1.129293c-8.469697,0 -18.068687,0.564646 -22.585859,7.340404c-5.081818,6.775758 -2.258586,15.810102 0,23.715152c1.693939,5.081818 3.387879,10.728283 2.258586,13.551516c-0.564646,2.823232 -5.081818,6.211111 -9.59899,9.034344c-6.775758,5.081818 -14.680809,11.29293 -14.680809,19.762627c0,8.469697 7.905051,14.116162 14.116162,19.19798c3.952525,2.823232 8.469697,6.775758 9.59899,9.034344c1.129293,2.823232 -0.564646,8.469697 -2.258586,13.551516c-2.258586,7.905051 -5.081818,16.939394 0,23.715152c4.517172,5.646465 12.422223,6.775758 19.762627,7.340404l-23.715152,78.485861c-0.564646,2.258586 0,4.517172 1.693939,5.646465c1.693939,1.693939 3.952525,1.693939 5.646465,1.129293l31.055557,-11.857576l19.19798,27.103031c1.129293,1.693939 2.823232,2.258586 4.517172,2.258586c0.564646,0 0.564646,0 1.129293,0c2.258586,-0.564646 3.952525,-1.693939 4.517172,-3.952525l23.715152,-78.485861c1.129293,-0.564646 1.693939,-0.564646 2.823232,-0.564646c0.564646,0 1.693939,0 2.823232,0.564646l23.150506,78.485861c0.564646,2.258586 2.258586,3.387879 4.517172,3.952525c0.564646,0 0.564646,0 1.129293,0c1.693939,0 3.387879,-1.129293 4.517172,-2.258586l19.19798,-27.103031l31.055557,11.857576c2.258586,0.564646 4.517172,0.564646 5.646465,-1.129293s2.258586,-3.952525 1.693939,-5.646465l-23.715152,-78.485861c7.340404,0 15.245455,-1.129293 19.762627,-6.775758c5.081818,-6.775758 2.258586,-15.810102 0,-23.715152c-0.564646,-6.211111 -2.258586,-11.29293 -1.693939,-14.116162c0,0 0,0 0,0zm-121.398994,128.739398l-15.245455,-21.456566c-1.693939,-2.258586 -4.517172,-2.823232 -6.775758,-2.258586l-24.279799,9.59899l20.89192,-70.58081c2.258586,0 3.952525,0.564646 4.517172,1.693939c2.258586,1.693939 3.952525,7.340404 5.646465,11.857576c2.823232,7.905051 6.211111,16.939394 14.116162,19.762627c1.129293,0.564646 2.823232,0.564646 3.952525,0.564646c4.517172,0 9.034344,-2.258586 12.986869,-5.081818l-15.810102,55.900002zm89.214144,-23.715152c-2.258586,-1.129293 -5.081818,0 -6.775758,2.258586l-14.680809,21.456566l-16.939394,-55.900002c5.646465,3.387879 11.29293,6.211111 17.504041,3.952525c7.905051,-2.823232 11.29293,-11.857576 14.116162,-19.762627c1.693939,-5.081818 3.387879,-10.163637 6.211111,-11.857576c1.129293,-0.564646 2.823232,-1.129293 4.517172,-1.693939l20.89192,70.016164l-24.844445,-8.469697zm21.456566,-108.976771c-1.693939,6.211111 0,12.986869 2.258586,19.762627c1.693939,5.081818 3.387879,11.857576 1.693939,13.551516c-1.693939,2.258586 -8.469697,2.258586 -13.551516,2.258586c-7.340404,0 -14.680809,0.564646 -19.762627,3.952525c-5.081818,3.952525 -7.340404,10.728283 -10.163637,17.504041c-1.693939,5.081818 -3.952525,11.857576 -6.775758,12.422223c-2.258586,0.564646 -7.905051,-3.387879 -12.422223,-6.211111c-2.823232,-1.693939 -5.646465,-3.952525 -8.469697,-5.081818c0,0 0,0 -0.564646,0c-3.387879,-1.693939 -6.775758,-2.823232 -10.163637,-2.823232c-6.775758,0 -12.986869,4.517172 -18.633334,8.469697c-3.952525,2.823232 -10.163637,6.775758 -12.422223,6.211111c-2.823232,-1.129293 -5.081818,-7.905051 -6.775758,-12.422223c-2.258586,-6.775758 -4.517172,-13.551516 -9.59899,-17.504041c-5.081818,-3.952525 -12.422223,-3.952525 -19.762627,-3.952525c-5.081818,0 -12.422223,-0.564646 -14.116162,-2.258586c-1.693939,-2.258586 0.564646,-9.034344 1.693939,-13.551516c2.258586,-6.775758 3.952525,-14.116162 2.258586,-20.327273c-0.564646,-5.646465 -6.211111,-10.163637 -11.857576,-14.116162c-4.517172,-3.387879 -10.163637,-7.340404 -10.163637,-10.728283c0,-2.823232 5.646465,-7.340404 10.163637,-10.728283c5.646465,-3.952525 11.29293,-8.469697 12.986869,-14.680809c2.258586,-6.211111 0,-12.986869 -2.258586,-20.327273c-1.693939,-5.081818 -3.387879,-11.857576 -1.693939,-13.551516c1.693939,-2.258586 8.469697,-2.258586 13.551516,-2.258586c7.340404,0 14.680809,-0.564646 19.762627,-3.952525c5.081818,-3.952525 7.340404,-10.728283 9.59899,-17.504041c2.258586,-4.517172 4.517172,-11.29293 7.340404,-12.422223c0,0 0.564646,0 0.564646,0c2.823232,0 7.905051,3.387879 11.857576,6.211111c6.211111,3.952525 12.422223,8.469697 18.633334,8.469697c6.775758,0 12.986869,-4.517172 18.633334,-8.469697c3.952525,-2.823232 10.163637,-6.775758 12.422223,-6.211111c2.823232,1.129293 5.081818,7.340404 6.775758,12.422223c2.258586,6.775758 4.517172,13.551516 10.163637,17.504041c5.081818,3.952525 12.422223,3.952525 19.762627,3.952525c5.081818,0 12.422223,0.564646 13.551516,2.258586c1.693939,2.258586 -0.564646,9.034344 -1.693939,13.551516c-2.258586,6.775758 -3.952525,14.116162 -2.258586,19.762627c1.693939,5.646465 7.905051,10.163637 12.986869,14.680809c4.517172,3.387879 10.163637,7.340404 10.163637,10.728283c0,2.823232 -5.646465,7.340404 -10.163637,10.163637c-5.646465,5.081818 -11.29293,9.59899 -13.551516,15.245455z"/>
   <path stroke="null" id="svg_2" d="m150.564647,47.79382c-37.266668,0 -67.757578,30.49091 -67.757578,67.757578s30.49091,67.757578 67.757578,67.757578c37.266668,0 67.757578,-30.49091 67.757578,-67.757578s-30.49091,-67.757578 -67.757578,-67.757578zm0,124.222226c-31.055557,0 -56.464648,-25.409092 -56.464648,-56.464648c0,-31.055557 25.409092,-56.464648 56.464648,-56.464648s56.464648,25.409092 56.464648,56.464648c0,31.055557 -25.409092,56.464648 -56.464648,56.464648z"/>
   <path stroke="null" id="svg_3" d="m186.137375,101.435236l-20.89192,-2.823232l-9.59899,-19.19798c-1.693939,-3.952525 -8.469697,-3.952525 -10.163637,0l-9.59899,19.19798l-20.89192,2.823232c-2.258586,0.564646 -3.952525,1.693939 -4.517172,3.952525s0,4.517172 1.693939,5.646465l15.245455,14.680809l-3.387879,20.89192c-0.564646,2.258586 0.564646,4.517172 2.258586,5.646465c1.693939,1.129293 3.952525,1.693939 6.211111,0.564646l19.19798,-10.163637l18.633334,10.163637c0.564646,0.564646 1.693939,0.564646 2.823232,0.564646c1.129293,0 2.258586,-0.564646 3.387879,-1.129293c1.693939,-1.129293 2.823232,-3.387879 2.258586,-5.646465l-3.387879,-20.89192l15.245455,-14.680809c1.693939,-1.693939 2.258586,-3.952525 1.693939,-5.646465c-2.258586,-2.258586 -3.952525,-3.952525 -6.211111,-3.952525zm-22.021213,18.068687c-1.129293,1.129293 -1.693939,3.387879 -1.693939,5.081818l2.258586,12.986869l-11.29293,-6.211111c-0.564646,-0.564646 -1.693939,-0.564646 -2.823232,-0.564646s-1.693939,0 -2.823232,0.564646l-11.29293,6.211111l2.258586,-12.986869c0.564646,-1.693939 -0.564646,-3.952525 -1.693939,-5.081818l-9.034344,-9.034344l12.986869,-1.693939c1.693939,0 3.387879,-1.693939 4.517172,-2.823232l5.646465,-11.29293l5.646465,11.29293c0.564646,1.693939 2.258586,2.823232 4.517172,2.823232l11.857576,1.693939l-9.034344,9.034344z"/>
  </g>
 </g>
</svg>