<svg width="300" height="300" xmlns="http://www.w3.org/2000/svg">

 <g>
  <title>background</title>
  <rect fill="none" id="canvas_background" height="302" width="302" y="-1" x="-1"/>
 </g>
 <g>
  <title>Layer 1</title>
  <g stroke="null" id="svg_1">
   <path id="svg_2" clip-rule="nonzero" fill="#000000" fill-rule="nonzero" stroke-width="0.529167" stroke-linecap="round" stroke-linejoin="round" stroke-miterlimit="4" stroke-dashoffset="0" d="m149.774893,42.490169c-0.531674,0.038695 -1.054449,0.154782 -1.54975,0.350193l-138.234981,51.160707c-4.449001,1.652293 -4.449001,7.945515 0,9.598195l47.871406,17.726933l0,59.389279c0.000193,1.358208 0.539607,2.65934 1.499833,3.619372c0,0 32.472194,32.214096 90.643536,32.214096c25.693537,0 46.356095,-6.290127 61.438973,-13.307534l0,22.505812l-9.898278,24.735633c-1.353371,3.367465 1.129905,7.035013 4.759145,7.028628l20.47624,0c3.633689,0.01335 6.124317,-3.6571 4.769205,-7.028628l-9.868289,-24.635606l0,-27.915039c12.411349,-7.132912 18.966733,-13.597362 18.966733,-13.597362c0.960032,-0.959645 1.499446,-2.261938 1.499833,-3.619372l0,-59.389279l47.861345,-17.726933c4.449001,-1.652293 4.449001,-7.945515 0,-9.598195l-138.235174,-51.160707c-0.636539,-0.249585 -1.316417,-0.367606 -1.999584,-0.350193l-0.000193,0zm0.220177,10.588023l123.497653,45.721878l-55.669879,20.606256l-65.968074,-25.365401c-0.6377,-0.261194 -1.32106,-0.390823 -2.009644,-0.379215c-5.702344,0.077391 -7.027855,8.013232 -1.659838,9.938134l55.10009,21.196167l-53.290307,19.726517l-123.447736,-45.721685l123.447736,-45.722652zm81.915019,72.037057l0,53.250451c-1.133968,1.069927 -4.727995,4.144275 -10.228156,7.798473l0,-57.259679l10.228156,-3.789245zm-163.810497,0.010254l80.125551,29.674711c1.145383,0.423714 2.404144,0.423714 3.549334,0l59.66924,-22.096028l0,59.48892c-13.756594,7.070419 -34.223546,14.117428 -61.43878,14.117428c-50.658441,0 -78.170468,-24.424329 -81.905345,-27.944834l0,-53.240196zm148.443208,115.459075l2.689522,6.688883l-5.368984,0l2.679461,-6.688883z"/>
  </g>
 </g>
</svg>