<svg width="300" height="300" xmlns="http://www.w3.org/2000/svg">

 <g>
  <title>background</title>
  <rect fill="none" id="canvas_background" height="302" width="302" y="-1" x="-1"/>
 </g>
 <g>
  <title>Layer 1</title>
  <g stroke="null" id="svg_1">
   <path stroke="null" id="svg_2" d="m274.272671,63.527843l-58.874668,0c0,-20.703667 -16.8435,-37.544001 -37.544001,-37.544001l-52.326001,0c-9.981333,0 -19.399,3.917167 -26.511334,11.032667c-7.1155,7.112333 -11.032667,16.53 -11.032667,26.511334l-62.291501,0c-10.032,0 -18.1925,8.176333 -18.1925,18.227334l0,90.994168c0,6.118 3.0495,11.514 7.679167,14.823167l0,68.254334c0,10.032 8.1605,18.189334 18.1925,18.189334l233.221837,0c10.051,0 18.227334,-8.1605 18.227334,-18.189334l0,-68.267001c4.629667,-3.309167 7.679167,-8.698833 7.679167,-14.8105l0,-90.994168c0,-10.051 -8.176333,-18.227334 -18.227334,-18.227334zm-163.191003,-14.446334c3.891833,-3.888667 9.021833,-6.0325 14.446334,-6.0325l52.322834,0c11.292334,0 20.478834,9.1865 20.478834,20.478834l-93.280501,0c0,-5.4245 2.143833,-10.5545 6.0325,-14.446334zm163.498169,206.745337c0,4.373167 -3.578333,7.9515 -7.9515,7.9515l-233.25667,0c-4.392167,0 -7.9515,-3.559333 -7.9515,-7.9515l0,-64.878668c0.095,0 0.1805,0.0285 0.272333,0.0285l85.211835,0c3.834833,0 6.9445,-3.109667 6.9445,-6.9445l0,-8.1415c0,-6.596167 5.3485,-11.944667 11.944667,-11.944667l43.791834,0c6.596167,0 11.944667,5.3485 11.944667,11.944667l0,8.1415c0,3.834833 3.109667,6.9445 6.9445,6.9445l81.798168,0c0.1045,0 0.202667,-0.0285 0.307167,-0.031667l0,64.881834zm5.972333,-83.077501c0,3.464333 -2.815167,6.282667 -6.2795,6.282667l-76.763168,0l-0.034833,-3.382c-0.129833,-13.0435 -10.845834,-23.655 -23.889334,-23.655l-43.791834,0c-13.046667,0 -23.762667,10.6115 -23.889334,23.655l-0.034833,3.378833l-80.176835,0c-3.445333,0 -6.247833,-2.818333 -6.247833,-6.282667l0,-90.991001c0,-3.464333 2.8025,-6.282667 6.247833,-6.282667l248.580171,0c3.464333,0 6.2795,2.818333 6.2795,6.282667l0,90.994168z"/>
   <path stroke="null" id="svg_3" d="m168.778336,218.748345l-34.174667,0c-7.1535,0 -12.977,-5.820333 -12.977,-12.977l0,-25.0705c0,-7.1535 5.820333,-12.977 12.977,-12.977l34.174667,0c7.1535,0 12.977,5.820333 12.977,12.977l0,25.0705c-0.003167,7.1535 -5.8235,12.977 -12.977,12.977zm-34.174667,-41.521334c-1.915833,0 -3.477,1.558 -3.477,3.477l0,25.0705c0,1.915833 1.558,3.477 3.477,3.477l34.174667,0c1.919,0 3.477,-1.558 3.477,-3.477l0,-25.0705c0,-1.915833 -1.558,-3.477 -3.477,-3.477l-34.174667,0z"/>
  </g>
 </g>
</svg>
